<svg viewBox="0 0 512 512" xmlns="http://www.w3.org/2000/svg"><path d="m504.273438 193.339844c-.042969-.179688-.101563-.351563-.160157-.519532-12.367187-48.683593-38.929687-92.914062-76.804687-127.046874-47.0625-42.414063-107.898438-65.773438-171.308594-65.773438-61.511719 0-120.972656 22.140625-167.429688 62.339844-3.132812 2.707031-3.476562 7.445312-.765624 10.578125 2.710937 3.128906 7.445312 3.472656 10.578124.761719 43.734376-37.839844 99.710938-58.679688 157.617188-58.679688 59.695312 0 116.964844 21.988281 161.265625 61.914062 41.699219 37.582032 68.828125 88.160157 77.050781 143.230469-6.324218-.46875-12.648437-.722656-18.894531-.722656-68.382813 0-132.667969 26.628906-181.023437 74.980469-48.351563 48.351562-74.976563 112.636718-74.976563 181.019531 0 6.242187.253906 12.570313.722656 18.894531-55.070312-8.222656-105.648437-35.351562-143.230469-77.050781-39.925781-44.300781-61.914062-101.570313-61.914062-161.265625 0-59.78125 22.042969-117.121094 62.070312-161.453125 2.777344-3.074219 2.535157-7.816406-.539062-10.59375-3.074219-2.773437-7.816406-2.53125-10.59375.542969-42.519531 47.09375-65.9375 108-65.9375 171.503906 0 63.410156 23.359375 124.246094 65.773438 171.308594 22.203124 24.636718 48.683593 44.484375 77.878906 58.757812.144531.082032.285156.167969.4375.242188 35.023437 17.046875 72.675781 25.691406 111.910156 25.691406 68.378906 0 132.667969-26.628906 181.019531-74.980469 48.351563-48.351562 74.980469-112.640625 74.980469-181.019531 0-21.203125-2.601562-42.285156-7.726562-62.660156zm-269.851563 282.082031c0-64.375 25.066406-124.894531 70.585937-170.414063 45.519532-45.519531 106.039063-70.585937 170.414063-70.585937 3.515625 0 7.0625.097656 10.617187.257813l-251.359374 251.359374c-.15625-3.554687-.257813-7.101562-.257813-10.617187zm191.992187-49.007813c-45.519531 45.519532-106.039062 70.585938-170.414062 70.585938-3.617188 0-7.21875-.101562-10.808594-.257812l251.566406-251.566407c.160157 3.601563.242188 7.210938.242188 10.824219 0 64.375-25.066406 124.894531-70.585938 170.414062zm0 0"/><path d="m151.707031 198.671875c-3.746093-1.765625-8.21875-.15625-9.980469 3.589844-1.808593 3.835937-3.4375 7.808593-4.84375 11.800781-1.375 3.90625.675782 8.1875 4.585938 9.566406.820312.289063 1.664062.425782 2.488281.425782 3.09375 0 5.988281-1.925782 7.074219-5.011719 1.238281-3.515625 2.671875-7.011719 4.265625-10.390625 1.765625-3.746094.15625-8.214844-3.589844-9.980469zm0 0"/><path d="m365.996094 218.65625c.941406 0 1.902344-.179688 2.832031-.558594 3.832031-1.5625 5.675781-5.941406 4.109375-9.777344-1.601562-3.917968-3.421875-7.800781-5.410156-11.542968-1.949219-3.65625-6.488282-5.042969-10.144532-3.097656-3.65625 1.949218-5.042968 6.488281-3.101562 10.144531 1.753906 3.292969 3.355469 6.714843 4.765625 10.164062 1.1875 2.90625 3.992187 4.667969 6.949219 4.667969zm0 0"/><path d="m147.496094 304.90625c-3.660156 1.941406-5.054688 6.480469-3.117188 10.140625 1.980469 3.734375 4.179688 7.417969 6.53125 10.945313 1.445313 2.167968 3.824219 3.339843 6.246094 3.339843 1.433594 0 2.878906-.410156 4.15625-1.261719 3.445312-2.300781 4.375-6.957031 2.078125-10.402343-2.074219-3.109375-4.011719-6.355469-5.757813-9.648438-1.941406-3.660156-6.476562-5.050781-10.136718-3.113281zm0 0"/><path d="m177.769531 156.902344c-3.320312 2.625-6.546875 5.449218-9.589843 8.394531-2.976563 2.882813-3.050782 7.628906-.167969 10.605469 1.46875 1.519531 3.425781 2.285156 5.386719 2.285156 1.878906 0 3.761718-.703125 5.214843-2.113281 2.683594-2.597657 5.53125-5.089844 8.457031-7.402344 3.25-2.570313 3.800782-7.285156 1.234376-10.535156-2.566407-3.25-7.285157-3.800781-10.535157-1.234375zm0 0"/><path d="m284.363281 148.394531c.640625.167969 1.28125.25 1.910157.25 3.328124 0 6.363281-2.226562 7.25-5.59375 1.054687-4.007812-1.339844-8.109375-5.34375-9.160156-4.09375-1.078125-8.292969-1.957031-12.484376-2.613281-4.097656-.636719-7.929687 2.15625-8.574218 6.25-.640625 4.089844 2.15625 7.925781 6.25 8.570312 3.691406.578125 7.390625 1.351563 10.992187 2.296875zm0 0"/><path d="m220.183594 150.246094c.75 0 1.511718-.113282 2.261718-.351563 3.558594-1.121093 7.210938-2.074219 10.867188-2.832031 4.054688-.839844 6.664062-4.808594 5.824219-8.863281-.839844-4.058594-4.8125-6.664063-8.867188-5.824219-4.148437.859375-8.300781 1.941406-12.339843 3.21875-3.953126 1.246094-6.140626 5.460938-4.894532 9.410156 1.011719 3.199219 3.964844 5.242188 7.148438 5.242188zm0 0"/><path d="m329.417969 172.410156c1.421875 1.25 3.1875 1.867188 4.949219 1.867188 2.082031 0 4.152343-.863282 5.636718-2.546875 2.734375-3.113281 2.429688-7.851563-.683594-10.585938-3.179687-2.796875-6.539062-5.460937-9.984374-7.925781-3.371094-2.40625-8.054688-1.628906-10.464844 1.742188-2.40625 3.371093-1.628906 8.054687 1.742187 10.464843 3.035157 2.167969 5.996094 4.519531 8.804688 6.984375zm0 0"/><path d="m129.78125 258.964844c.101562 4.246094.414062 8.523437.933594 12.710937.46875 3.796875 3.703125 6.578125 7.433594 6.578125.308593 0 .617187-.019531.929687-.058594 4.113281-.507812 7.03125-4.253906 6.523437-8.367187-.460937-3.691406-.734374-7.464844-.820312-11.210937-.097656-4.140626-3.5625-7.441407-7.671875-7.324219-4.140625.097656-7.421875 3.53125-7.328125 7.671875zm0 0"/><path d="m180.78125 348.199219c-2.414062 3.367187-1.640625 8.054687 1.726562 10.464843 3.445313 2.472657 7.054688 4.792969 10.726563 6.902344 1.175781.675782 2.457031.996094 3.726563.996094 2.597656 0 5.125-1.351562 6.511718-3.769531 2.0625-3.589844.820313-8.175781-2.773437-10.238281-3.234375-1.855469-6.414063-3.902344-9.453125-6.078126-3.363282-2.414062-8.050782-1.640624-10.464844 1.722657zm0 0"/></svg>