<?xml version="1.0" encoding="UTF-8"?>
<svg version="1.1" xmlns="http://www.w3.org/2000/svg" xmlns:xlink="http://www.w3.org/1999/xlink">
<defs>

</defs>
<symbol id="i-laptop" xmlns="http://www.w3.org/2000/svg" viewBox="0 0 512 512"><path d="M511.976 416.063c-.005-.075-.004-.149-.011-.224a7.343 7.343 0 0 0-.131-.873c-.006-.028-.015-.056-.022-.084a7.268 7.268 0 0 0-.218-.768c-.023-.067-.048-.132-.073-.198a7.221 7.221 0 0 0-.284-.663c-.018-.038-.03-.077-.049-.115l-40.112-79.118V73.72c0-8.006-6.513-14.519-14.519-14.519H55.441c-8.006 0-14.519 6.513-14.519 14.519v260.298L.811 413.137c-.019.038-.031.077-.049.115a7.618 7.618 0 0 0-.284.662c-.025.066-.05.132-.073.199a7.626 7.626 0 0 0-.218.77l-.021.081a7.391 7.391 0 0 0-.131.874c-.007.074-.007.149-.011.223-.01.156-.024.31-.024.468v19.026c0 9.509 7.735 17.244 17.244 17.244h477.512c9.509 0 17.244-7.735 17.244-17.244v-19.026c0-.158-.014-.312-.024-.466zM55.923 74.203h400.154v254.109H55.923V74.203zm-2.894 269.108H458.97l33.318 65.717h-164.78l-8.271-29.989c-1.684-6.105-7.282-10.369-13.615-10.369h-99.246c-6.333 0-11.932 4.264-13.615 10.368l-8.271 29.99H19.711l33.318-65.717zm258.919 65.718H200.052l6.993-25.358h97.91l6.993 25.358zM497 435.554a2.247 2.247 0 0 1-2.244 2.244H17.244A2.247 2.247 0 0 1 15 435.554v-11.526h482v11.526z"/><path d="M432.577 213.756a7.499 7.499 0 0 0-7.5 7.5v76.055H86.923v-76.055c0-4.143-3.357-7.5-7.5-7.5a7.499 7.499 0 0 0-7.5 7.5v79.294c0 6.485 5.275 11.761 11.761 11.761h344.633c6.485 0 11.761-5.275 11.761-11.761v-79.294a7.502 7.502 0 0 0-7.501-7.5zM428.316 90.203H83.684c-6.485 0-11.761 5.275-11.761 11.761v79.294c0 4.143 3.357 7.5 7.5 7.5s7.5-3.357 7.5-7.5v-76.055h338.154v76.055c0 4.143 3.357 7.5 7.5 7.5s7.5-3.357 7.5-7.5v-79.294c0-6.487-5.275-11.761-11.761-11.761z"/></symbol>
<symbol id="i-next" xmlns="http://www.w3.org/2000/svg" viewBox="0 0 235.786 235.786"><path d="M227.956 100.056l-57.424-57.424c-3.48-3.48-8.701-3.48-12.181 0s-3.48 8.701 0 12.181l53.944 53.944H8.701c-5.22 0-8.701 3.48-8.701 8.701 0 5.22 3.48 8.701 8.701 8.701h205.334l-55.684 55.684c-3.48 3.48-3.48 8.701 0 12.181 1.74 1.74 5.22 1.74 6.96 1.74 3.48 0 5.22 0 5.22-1.74l57.424-57.424c10.442-10.442 10.442-26.103.001-36.544z"/></symbol>
<symbol id="i-random" xmlns="http://www.w3.org/2000/svg" viewBox="0 0 477.88 477.88"><path d="M472.897 124.269a.892.892 0 0 1-.03-.031l-.017.017-68.267-68.267c-6.78-6.548-17.584-6.36-24.132.42-6.388 6.614-6.388 17.099 0 23.713l39.151 39.151h-95.334c-65.948.075-119.391 53.518-119.467 119.467-.056 47.105-38.228 85.277-85.333 85.333h-102.4C7.641 324.072 0 331.713 0 341.139s7.641 17.067 17.067 17.067h102.4c65.948-.075 119.391-53.518 119.467-119.467.056-47.105 38.228-85.277 85.333-85.333h95.334l-39.134 39.134c-6.78 6.548-6.968 17.353-.419 24.132 6.548 6.78 17.353 6.968 24.132.419.142-.137.282-.277.419-.419l68.267-68.267c6.674-6.657 6.687-17.463.031-24.136z"/><path d="M472.897 329.069l-.03-.03-.017.017-68.267-68.267c-6.78-6.548-17.584-6.36-24.132.42-6.388 6.614-6.388 17.099 0 23.712l39.151 39.151h-95.334a85.209 85.209 0 0 1-56.9-21.726c-7.081-6.222-17.864-5.525-24.086 1.555-6.14 6.988-5.553 17.605 1.319 23.874a119.28 119.28 0 0 0 79.667 30.43h95.334l-39.134 39.134c-6.78 6.548-6.968 17.352-.42 24.132 6.548 6.78 17.352 6.968 24.132.42.142-.138.282-.277.42-.42l68.267-68.267c6.673-6.656 6.686-17.462.03-24.135zM199.134 149.702a119.28 119.28 0 0 0-79.667-30.43h-102.4C7.641 119.272 0 126.913 0 136.339s7.641 17.067 17.067 17.067h102.4a85.209 85.209 0 0 1 56.9 21.726c7.081 6.222 17.864 5.525 24.086-1.555 6.14-6.989 5.553-17.606-1.319-23.875z"/></symbol>
<symbol id="i-sticker" viewBox="0 0 512 512" xmlns="http://www.w3.org/2000/svg"><path d="M504.273 193.34a5.362 5.362 0 0 0-.16-.52c-12.367-48.683-38.93-92.914-76.804-127.047C380.246 23.36 319.41 0 256 0 194.488 0 135.027 22.14 88.57 62.34a7.498 7.498 0 1 0 9.813 11.34C142.117 35.84 198.093 15 256 15c59.695 0 116.965 21.988 161.266 61.914 41.699 37.582 68.828 88.16 77.05 143.23a256.142 256.142 0 0 0-18.894-.722c-68.383 0-132.668 26.629-181.024 74.98-48.351 48.352-74.976 112.637-74.976 181.02 0 6.242.254 12.57.723 18.894-55.07-8.222-105.649-35.351-143.23-77.05C36.987 372.965 15 315.696 15 256c0-59.781 22.043-117.121 62.07-161.453a7.5 7.5 0 1 0-11.132-10.05C23.417 131.59 0 192.496 0 256c0 63.41 23.36 124.246 65.773 171.309 22.204 24.636 48.684 44.484 77.88 58.757.144.082.285.168.437.243C179.113 503.355 216.766 512 256 512c68.379 0 132.668-26.629 181.02-74.98C485.37 388.668 512 324.379 512 256c0-21.203-2.602-42.285-7.727-62.66zM234.422 475.422c0-64.375 25.066-124.895 70.586-170.414 45.52-45.52 106.039-70.586 170.414-70.586 3.515 0 7.062.098 10.617.258L234.68 486.04a242.189 242.189 0 0 1-.257-10.618zm191.992-49.008C380.894 471.934 320.375 497 256 497c-3.617 0-7.219-.102-10.809-.258l251.567-251.566c.16 3.601.242 7.21.242 10.824 0 64.375-25.066 124.895-70.586 170.414zm0 0"/><path d="M151.707 198.672a7.5 7.5 0 0 0-9.98 3.59 125.77 125.77 0 0 0-4.844 11.8 7.502 7.502 0 0 0 7.074 9.993 7.5 7.5 0 0 0 7.074-5.012 110.518 110.518 0 0 1 4.266-10.39 7.5 7.5 0 0 0-3.59-9.981zm0 0M365.996 218.656a7.5 7.5 0 0 0 6.941-10.336 127.609 127.609 0 0 0-5.41-11.543 7.502 7.502 0 0 0-13.246 7.047 111.326 111.326 0 0 1 4.766 10.164 7.509 7.509 0 0 0 6.95 4.668zm0 0M147.496 304.906a7.505 7.505 0 0 0-3.117 10.14 127.57 127.57 0 0 0 6.531 10.946 7.492 7.492 0 0 0 6.246 3.34 7.504 7.504 0 0 0 6.234-11.664 112.034 112.034 0 0 1-5.757-9.648 7.499 7.499 0 0 0-10.137-3.114zm0 0M177.77 156.902a127.871 127.871 0 0 0-9.59 8.395 7.498 7.498 0 0 0-.168 10.605 7.47 7.47 0 0 0 5.386 2.286 7.468 7.468 0 0 0 5.215-2.114 112.626 112.626 0 0 1 8.457-7.402 7.502 7.502 0 0 0 1.235-10.535c-2.567-3.25-7.285-3.801-10.535-1.235zm0 0M284.363 148.395c.64.167 1.282.25 1.91.25a7.502 7.502 0 0 0 7.25-5.594 7.497 7.497 0 0 0-5.343-9.16 125.342 125.342 0 0 0-12.485-2.614 7.506 7.506 0 0 0-8.574 6.25 7.503 7.503 0 0 0 6.25 8.57c3.692.579 7.39 1.352 10.992 2.298zm0 0M220.184 150.246a7.46 7.46 0 0 0 2.261-.351 111.826 111.826 0 0 1 10.868-2.833 7.5 7.5 0 1 0-3.043-14.687c-4.149.86-8.301 1.941-12.34 3.219a7.499 7.499 0 0 0-4.895 9.41 7.502 7.502 0 0 0 7.149 5.242zm0 0M329.418 172.41a7.473 7.473 0 0 0 4.95 1.867 7.5 7.5 0 0 0 4.953-13.133c-3.18-2.796-6.54-5.46-9.985-7.925a7.504 7.504 0 0 0-10.465 1.742 7.504 7.504 0 0 0 1.742 10.465 112.826 112.826 0 0 1 8.805 6.984zm0 0M129.781 258.965c.102 4.246.414 8.523.934 12.71a7.5 7.5 0 1 0 14.887-1.847 111.5 111.5 0 0 1-.82-11.21c-.098-4.141-3.563-7.442-7.673-7.325a7.506 7.506 0 0 0-7.328 7.672zm0 0M180.781 348.2a7.498 7.498 0 0 0 1.727 10.464 126.766 126.766 0 0 0 10.726 6.902 7.495 7.495 0 0 0 10.238-2.773c2.063-3.59.821-8.176-2.773-10.238a112.325 112.325 0 0 1-9.453-6.078c-3.363-2.414-8.05-1.641-10.465 1.722zm0 0"/></symbol>
<symbol id="i-undo" xmlns="http://www.w3.org/2000/svg" viewBox="0 0 275.979 275.979"><path d="M154.171 16.181c-58.834 0-107.156 40.58-118.972 95.585l-18.497-31.2c-3.48-5.22-8.701-5.22-12.181-3.48-5.22 3.48-5.22 8.701-3.48 12.181l33.062 53.944c1.74 1.74 3.48 3.48 5.22 3.48h1.74c1.74 0 3.48 0 5.22 1.74l53.944-33.062c5.22-3.48 5.22-8.701 3.48-12.181-3.48-5.22-8.701-5.22-12.181-3.48l-40.684 24.101c6.995-50.759 50.707-90.225 103.328-90.225 57.424 0 104.407 46.983 104.407 104.407S211.594 242.397 154.17 242.397c-5.22 0-8.701 3.48-8.701 8.701s3.48 8.701 8.701 8.701c67.865 0 121.808-53.944 121.808-121.808.002-67.866-53.942-121.81-121.807-121.81z"/></symbol>
</svg>